<?xml version="1.0" encoding="UTF-8"?>
<svg id="Layer_2" data-name="Layer 2" xmlns="http://www.w3.org/2000/svg" viewBox="0 0 577.57 183.79">
  <defs>
    <style>
      .cls-1 {
        fill: #cf0;
        stroke-width: 0px;
      }
    </style>
  </defs>
  <g id="Layer_1-2" data-name="Layer 1">
    <g>
      <g>
        <path class="cls-1" d="M190.67,50.15c-1.09-4.14-2.76-7.71-4.99-10.7-2.24-2.99-5.07-5.29-8.5-6.92-3.43-1.62-7.43-2.43-12.01-2.43-5.96,0-10.65,1.69-14.08,5.06-3.43,3.38-5.84,8.01-7.24,13.9v-17.04h-28.32v89.67l28.32-7.6v-35.05c1.4,5.89,3.81,10.52,7.24,13.9,3.43,3.37,8.12,5.05,14.08,5.05,4.58,0,8.58-.81,12.01-2.43,3.43-1.62,6.26-3.93,8.5-6.92,2.23-2.98,3.9-6.55,4.99-10.69,1.09-4.14,1.64-8.78,1.64-13.9s-.55-9.76-1.64-13.9ZM160.7,72.44c-1.69,2.09-4.07,3.14-7.15,3.14s-5.47-1.05-7.16-3.14c-1.69-2.09-2.54-4.89-2.54-8.39s.85-6.3,2.54-8.39c1.69-2.1,4.07-3.14,7.16-3.14s5.46,1.04,7.15,3.14c1.69,2.09,2.54,4.89,2.54,8.39s-.85,6.3-2.54,8.39Z"/>
        <path class="cls-1" d="M204.24,96.08V32.02h28.33v16.52c1.39-5.72,3.8-10.23,7.23-13.51,3.43-3.29,8.13-4.93,14.09-4.93,4.77,0,8.87.85,12.3,2.56,3.43,1.71,6.24,3.97,8.42,6.79,2.19,2.82,3.8,6.04,4.85,9.67,1.04,3.63,1.56,7.41,1.56,11.34v35.61h-28.33v-32.02c0-3.16-.87-5.87-2.61-8.14-1.74-2.26-4.35-3.39-7.83-3.39s-5.97,1.3-7.46,3.91c-1.49,2.61-2.24,6-2.24,10.18v29.46h-28.33Z"/>
        <path class="cls-1" d="M289.97,81.09c0-3.5,1.14-6.36,3.43-8.58,2.29-2.22,5.27-3.99,8.95-5.32,3.68-1.32,7.83-2.33,12.45-3.01,4.62-.68,9.22-1.19,13.79-1.54l9.84-.9v-.38c0-6.74-6.02-10.12-18.04-10.12-3.78,0-7.73.56-11.85,1.67-4.13,1.11-8.03,2.78-11.7,5v-22.42c1.49-.68,3.1-1.35,4.84-1.98,1.74-.64,3.7-1.22,5.89-1.73,2.19-.51,4.65-.92,7.38-1.22,2.73-.3,5.89-.45,9.47-.45,14.81,0,25.57,2.73,32.28,8.2,6.71,5.47,10.06,13.15,10.06,23.06v34.72h-28.33v-16.52c-1.69,5.89-4.55,10.44-8.57,13.64-4.03,3.2-9.72,4.8-17.07,4.8s-12.62-1.54-16.7-4.61c-4.08-3.07-6.11-7.17-6.11-12.3ZM337.97,68.41l-9.09.77c-2.68.26-4.99.83-6.93,1.73-1.94.9-2.91,2.37-2.91,4.42,0,1.71.75,2.82,2.24,3.33,1.49.51,3.13.77,4.92.77,3.78,0,6.56-.98,8.35-2.95,1.79-1.96,2.93-4.65,3.43-8.07Z"/>
        <path class="cls-1" d="M425.64,32.02v17.04c-1.39-5.89-3.8-10.52-7.23-13.9-3.43-3.37-8.13-5.06-14.09-5.06-4.57,0-8.58.81-12.01,2.43-3.42,1.63-6.26,3.93-8.49,6.92-2.24,2.99-3.9,6.56-5,10.7-1.09,4.14-1.64,8.77-1.64,13.9s.55,9.76,1.64,13.9c1.1,4.14,2.76,7.71,5,10.69,2.23,2.99,5.07,5.3,8.49,6.92,3.43,1.62,7.44,2.43,12.01,2.43,5.96,0,10.66-1.68,14.09-5.05,3.43-3.38,5.84-8.01,7.23-13.9v34.99l28.33,7.6V32.02h-28.33ZM423.1,72.44c-1.69,2.09-4.07,3.14-7.15,3.14s-5.47-1.05-7.16-3.14c-1.69-2.09-2.53-4.89-2.53-8.39s.84-6.3,2.53-8.39c1.69-2.1,4.08-3.14,7.16-3.14s5.46,1.04,7.15,3.14c1.69,2.09,2.54,4.89,2.54,8.39s-.85,6.3-2.54,8.39Z"/>
        <path class="cls-1" d="M468.87,96.08V0h28.33v96.08h-28.33Z"/>
        <path class="cls-1" d="M547,67.77c-1.69,0-3.41-.13-5.14-.38-1.74-.26-3.36-.72-4.85-1.41.5,3.16,1.76,5.55,3.8,7.17,2.04,1.62,5.14,2.43,9.32,2.43,1.99,0,5.44-.41,10.36-1.22,4.92-.81,10.61-2.33,17.07-4.55v21.78c-2.98,1.37-5.74,2.46-8.28,3.27-2.53.81-4.97,1.45-7.31,1.92-2.34.47-4.62.79-6.86.96-2.24.17-4.5.25-6.78.25-6.66,0-12.52-.81-17.59-2.43-5.07-1.62-9.32-3.93-12.75-6.92-3.43-2.99-6.02-6.55-7.75-10.7-1.74-4.14-2.61-8.78-2.61-13.9s.77-9.76,2.31-13.9c1.54-4.14,3.88-7.71,7.01-10.7,3.13-2.99,7.11-5.3,11.93-6.92,4.82-1.62,10.56-2.43,17.22-2.43,3.28,0,6.68.28,10.21.83,3.53.56,6.78,1.58,9.76,3.07,2.98,1.5,5.42,3.57,7.31,6.21,1.89,2.65,2.83,6.06,2.83,10.25,0,6.24-2.41,10.68-7.23,13.32-4.82,2.65-12.15,3.97-21.99,3.97ZM536.86,58.29c.99.86,2.21,1.47,3.65,1.86,1.44.38,2.91.58,4.4.58,3.48,0,5.96-.58,7.46-1.73,1.49-1.15,2.24-2.97,2.24-5.45,0-1.62-.77-2.84-2.31-3.65-1.54-.81-3.31-1.22-5.29-1.22-3.28,0-5.69.88-7.23,2.63-1.54,1.75-2.51,4.08-2.91,6.98Z"/>
      </g>
      <path class="cls-1" d="M0,36.54v147.26l51-70.35,36.1,37.78V3.97L0,36.54ZM51.17,87.25c0-13.63-13.84-27.46-27.46-27.46,13.63,0,27.46-13.83,27.46-27.46,0,13.63,13.84,27.46,27.46,27.46-13.63,0-27.46,13.84-27.46,27.46Z"/>
    </g>
  </g>
</svg>